<svg width="192" height="193" viewBox="0 0 192 193" fill="none" xmlns="http://www.w3.org/2000/svg">
<path d="M186.707 100.933L74.9316 100.915C67.6255 100.903 60.6218 97.9963 55.4556 92.83C50.2894 87.6638 47.3822 80.6601 47.3711 73.354C45.5937 73.1713 43.8501 72.7433 42.1901 72.0822C49.2496 71.9144 56.0847 69.5691 61.7599 65.3671C67.4351 61.1651 71.673 55.3118 73.8935 48.6085C73.9934 48.3285 73.9961 48.0231 73.901 47.7414C73.806 47.4598 73.6188 47.2183 73.3698 47.0561C73.1312 46.8826 72.8414 46.7939 72.5465 46.804C72.2517 46.8142 71.9687 46.9227 71.7426 47.1122L68.1981 49.9271C66.3178 51.4361 63.9785 52.2577 61.5676 52.2558H55.7505C54.1062 52.2521 52.4774 52.5732 50.9576 53.2007C49.4377 53.8282 48.0568 54.7498 46.8941 55.9125L41.3671 61.4395L35.8493 55.9218C34.6863 54.7563 33.3042 53.8324 31.7826 53.2032C30.2611 52.574 28.6301 52.2521 26.9836 52.2558H24.552C22.7694 52.246 21.0186 51.7825 19.4645 50.9091L10.5427 46.0086C10.3083 45.8434 10.0265 45.759 9.73985 45.7679C9.4532 45.7768 9.17724 45.8785 8.95351 46.0579C8.72977 46.2374 8.5704 46.4846 8.49943 46.7625C8.42847 47.0404 8.44975 47.3338 8.56005 47.5985C10.3685 53.6973 13.8388 59.1722 18.5825 63.4105C23.3262 67.6488 29.156 70.483 35.4192 71.5958V79.4141C35.422 98.7087 42.0072 117.425 54.087 132.47C66.1667 147.516 83.018 157.989 101.856 162.161C100.326 168.491 97.6339 174.481 93.9163 179.827C93.6213 180.248 93.4475 180.741 93.4138 181.253C93.3801 181.766 93.4878 182.278 93.7252 182.733C93.9626 183.189 94.3205 183.57 94.7599 183.836C95.1993 184.102 95.7033 184.242 96.2169 184.241C103.678 184.277 111.017 182.351 117.497 178.654C123.978 174.957 129.372 169.621 133.139 163.181C164.833 158.402 188.671 136.153 190.579 104.917C190.614 104.396 190.543 103.873 190.371 103.38C190.199 102.887 189.93 102.433 189.579 102.046C189.204 101.67 188.755 101.377 188.261 101.185C187.766 100.994 187.237 100.908 186.707 100.933V100.933ZM143.856 123.079C143.848 123.289 143.826 123.498 143.791 123.706C143.531 123.136 143.137 122.639 142.643 122.255C142.149 121.871 141.57 121.612 140.954 121.501C140.338 121.39 139.705 121.429 139.108 121.616C138.511 121.803 137.968 122.132 137.525 122.574C137.083 123.017 136.754 123.56 136.567 124.157C136.38 124.754 136.341 125.387 136.452 126.003C136.563 126.619 136.822 127.198 137.206 127.692C137.589 128.186 138.087 128.58 138.656 128.84C138.451 128.859 138.245 128.896 138.03 128.905C136.876 128.907 135.747 128.565 134.787 127.925C133.827 127.284 133.079 126.374 132.636 125.308C132.194 124.242 132.078 123.068 132.303 121.936C132.528 120.804 133.083 119.765 133.899 118.948C134.715 118.132 135.755 117.577 136.887 117.352C138.019 117.127 139.193 117.243 140.259 117.685C141.325 118.127 142.235 118.876 142.876 119.836C143.516 120.796 143.858 121.925 143.856 123.079Z" fill="#7F38B5"/>
</svg>
